<svg width="18" height="18" viewBox="0 0 18 18" fill="none" xmlns="http://www.w3.org/2000/svg">
<path d="M12 3C12 2.1675 12.6675 1.5 13.5 1.5C14.3325 1.5 15 2.1675 15 3C15 3.8325 14.3325 4.5 13.5 4.5C12.6675 4.5 12 3.8325 12 3ZM15 15.75V12H15.8325C16.3425 12 16.7025 11.4975 16.545 11.01L14.97 6.2775C14.76 5.6625 14.19 5.25 13.545 5.25H13.455C12.81 5.25 12.2325 5.6625 12.03 6.2775L11.385 8.2125C12.195 8.6625 12.75 9.51 12.75 10.5V16.5H14.25C14.6625 16.5 15 16.1625 15 15.75ZM9.375 8.625C9.9975 8.625 10.5 8.1225 10.5 7.5C10.5 6.8775 9.9975 6.375 9.375 6.375C8.7525 6.375 8.25 6.8775 8.25 7.5C8.25 8.1225 8.7525 8.625 9.375 8.625ZM4.125 4.5C4.9575 4.5 5.625 3.8325 5.625 3C5.625 2.1675 4.9575 1.5 4.125 1.5C3.2925 1.5 2.625 2.1675 2.625 3C2.625 3.8325 3.2925 4.5 4.125 4.5ZM5.625 15.75V11.25H6C6.4125 11.25 6.75 10.9125 6.75 10.5V6.75C6.75 5.925 6.075 5.25 5.25 5.25H3C2.175 5.25 1.5 5.925 1.5 6.75V10.5C1.5 10.9125 1.8375 11.25 2.25 11.25H2.625V15.75C2.625 16.1625 2.9625 16.5 3.375 16.5H4.875C5.2875 16.5 5.625 16.1625 5.625 15.75ZM7.5 10.5V12.75C7.5 13.1625 7.8375 13.5 8.25 13.5V15.75C8.25 16.1625 8.5875 16.5 9 16.5H9.75C10.1625 16.5 10.5 16.1625 10.5 15.75V13.5C10.9125 13.5 11.25 13.1625 11.25 12.75V10.5C11.25 9.885 10.74 9.375 10.125 9.375H8.625C8.01 9.375 7.5 9.885 7.5 10.5Z" fill="#166534"/>
</svg>
