<svg width="14" height="16" viewBox="0 0 14 16" fill="none" xmlns="http://www.w3.org/2000/svg">
<path d="M12.3333 1.99999H11.6666V1.33332C11.6666 0.966656 11.3666 0.666656 10.9999 0.666656C10.6333 0.666656 10.3333 0.966656 10.3333 1.33332V1.99999H3.66659V1.33332C3.66659 0.966656 3.36659 0.666656 2.99992 0.666656C2.63325 0.666656 2.33325 0.966656 2.33325 1.33332V1.99999H1.66659C0.933252 1.99999 0.333252 2.59999 0.333252 3.33332V14C0.333252 14.7333 0.933252 15.3333 1.66659 15.3333H12.3333C13.0666 15.3333 13.6666 14.7333 13.6666 14V3.33332C13.6666 2.59999 13.0666 1.99999 12.3333 1.99999ZM11.6666 14H2.33325C1.96659 14 1.66659 13.7 1.66659 13.3333V5.33332H12.3333V13.3333C12.3333 13.7 12.0333 14 11.6666 14Z" fill="#1E293B"/>
</svg>
