<svg width="18" height="18" viewBox="0 0 18 18" fill="none" xmlns="http://www.w3.org/2000/svg">
<path d="M2.09254 11.085L2.02504 11.0175C1.73254 10.725 1.73254 10.2525 2.02504 9.96001L6.59254 5.38501C6.88504 5.09251 7.35754 5.09251 7.65004 5.38501L10.1175 7.85251L14.91 2.46751C15.195 2.14501 15.6975 2.13751 15.9975 2.43751C16.275 2.72251 16.29 3.17251 16.0275 3.46501L10.65 9.51751C10.365 9.84001 9.87004 9.85501 9.56254 9.54751L7.12504 7.11001L3.15004 11.085C2.86504 11.3775 2.38504 11.3775 2.09254 11.085ZM3.15004 15.585L7.12504 11.61L9.56254 14.0475C9.87004 14.355 10.365 14.34 10.65 14.0175L16.0275 7.96501C16.29 7.67251 16.275 7.22251 15.9975 6.93751C15.6975 6.63751 15.195 6.64501 14.91 6.96751L10.1175 12.3525L7.65004 9.88501C7.35754 9.59251 6.88504 9.59251 6.59254 9.88501L2.02504 14.46C1.73254 14.7525 1.73254 15.225 2.02504 15.5175L2.09254 15.585C2.38504 15.8775 2.86504 15.8775 3.15004 15.585Z" fill="#166534"/>
</svg>
